<svg width="99" height="242" viewBox="0 0 99 242" fill="none" xmlns="http://www.w3.org/2000/svg">
<path d="M85.9325 196.63C85.0679 196.637 84.2261 196.353 83.5418 195.824C82.8574 195.296 82.37 194.553 82.1573 193.715C81.9446 192.877 82.019 191.992 82.3686 191.201C82.7182 190.41 83.3227 189.759 84.0857 189.352C84.3647 189.198 90.1084 185.916 90.2631 178.972C90.4208 171.921 84.6649 156.394 44.3498 131.663C25.5477 120.121 12.7533 105.871 6.34238 89.3164C0.992906 75.4999 0.30451 60.3097 4.35301 45.3834C7.44624 33.9778 13.2263 23.1879 20.6259 14.9999C28.0739 6.74824 36.1891 2.12052 43.4764 1.95979C43.9841 1.94943 44.489 2.03919 44.962 2.22394C45.4351 2.40868 45.8672 2.6848 46.2335 3.03652C46.5999 3.38824 46.8934 3.80868 47.0973 4.27382C47.3011 4.73897 47.4114 5.23972 47.4218 5.74749C47.4321 6.25525 47.3424 6.76008 47.1576 7.23315C46.9729 7.70622 46.6968 8.13828 46.345 8.50464C45.9933 8.871 45.5729 9.1645 45.1077 9.36838C44.6426 9.57226 44.1418 9.68252 43.6341 9.69288C33.3657 9.90516 17.7752 25.4623 11.8162 47.4091C7.95572 61.641 3.79198 97.7015 48.3952 125.083C81.7779 145.571 98.4632 163.824 97.9901 179.336C97.6413 190.787 88.1494 195.969 87.746 196.185C87.1874 196.48 86.5645 196.633 85.9325 196.63Z" fill="#F59B1B" stroke="#010101" stroke-width="2" stroke-miterlimit="10"/>
<path d="M51.5098 240.927C71.7369 240.927 88.1343 224.867 88.1343 205.055C88.1343 185.243 71.7369 169.182 51.5098 169.182C31.2826 169.182 14.8853 185.243 14.8853 205.055C14.8853 224.867 31.2826 240.927 51.5098 240.927Z" fill="#F59B1B"/>
<path d="M14.8274 205.055C14.8435 200.284 15.81 195.565 17.6704 191.172C19.5308 186.778 22.2478 182.8 25.6628 179.469C29.0831 176.122 33.1202 173.47 37.5506 171.66C46.5147 167.994 56.5518 167.95 65.5474 171.539C70.015 173.316 74.0947 175.944 77.5594 179.278C81.0333 182.613 83.8066 186.608 85.7171 191.029C87.6235 195.464 88.6148 200.238 88.6315 205.065C88.6481 209.892 87.6899 214.672 85.8141 219.12C83.9253 223.573 81.1674 227.605 77.702 230.98C74.2337 234.355 70.1413 237.022 65.6535 238.832C56.5972 242.474 46.4759 242.431 37.4505 238.714C33.0035 236.869 28.9592 234.174 25.5446 230.78C18.7031 224.054 14.7304 214.58 14.8274 205.055ZM14.9487 205.055C14.9686 209.794 15.9573 214.48 17.854 218.824C19.7507 223.167 22.5154 227.077 25.9782 230.313C32.8834 236.776 41.9976 240.355 51.4553 240.318C60.913 240.281 69.9987 236.63 76.8529 230.113C80.2372 226.872 82.9405 222.988 84.8043 218.689C86.6651 214.379 87.6328 209.735 87.649 205.04C87.6651 200.345 86.7294 195.695 84.8983 191.372C83.0576 187.043 80.3719 183.126 76.9984 179.848C73.6238 176.559 69.6419 173.957 65.2745 172.188C58.682 169.504 51.4548 168.78 44.4612 170.105C37.4677 171.429 31.0054 174.745 25.8509 179.654C22.4029 182.925 19.6585 186.865 17.7855 191.233C15.9126 195.601 14.9504 200.305 14.9578 205.058L14.9487 205.055Z" fill="#010101"/>
<path d="M18.9277 205.055C18.9277 205.055 22.6912 227.12 46.7092 236.724L18.9277 205.055Z" fill="#F59B1B"/>
<path d="M18.9884 205.046C19.4082 206.816 19.9638 208.552 20.6502 210.238C22.696 215.289 25.6121 219.943 29.2658 223.987C29.5691 224.315 29.8723 224.658 30.1756 224.976L31.1339 225.931C31.4584 226.234 31.798 226.538 32.1286 226.841L32.6289 227.299L33.1475 227.733C34.5061 228.915 35.9496 229.995 37.3931 231.068C38.1331 231.584 38.8579 232.121 39.6282 232.585L40.7654 233.322C41.1535 233.55 41.5417 233.783 41.9299 234.019L42.5121 234.371C42.7062 234.489 42.9094 234.589 43.1187 234.701L44.3074 235.369C45.102 235.811 45.9238 236.203 46.7335 236.654L46.691 236.767C45.8177 236.485 44.9412 236.203 44.083 235.857C43.2248 235.511 42.3696 235.178 41.5508 234.756C41.1323 234.559 40.7169 234.359 40.3044 234.149L39.0914 233.482C38.2756 233.046 37.5114 232.527 36.726 232.039C33.6608 229.956 30.9044 227.452 28.538 224.6C26.1461 221.808 24.1013 218.737 22.4486 215.454C21.6296 213.809 20.9126 212.116 20.3015 210.383C19.6782 208.658 19.1994 206.884 18.8701 205.079L18.9884 205.046Z" fill="#010101"/>
<path d="M23.2976 186.292C23.2976 186.292 22.6911 216.921 56.3194 235.223L23.2976 186.292Z" fill="#F59B1B"/>
<path d="M23.3551 186.295C23.4552 188.863 23.7912 191.416 24.3589 193.922C24.916 196.424 25.6435 198.886 26.5363 201.289C27.4213 203.687 28.4669 206.024 29.6659 208.282C32.0534 212.802 35.0402 216.979 38.5453 220.7L39.1913 221.407C39.4096 221.637 39.6401 221.859 39.8615 222.086L41.211 223.439L42.606 224.743L43.3004 225.401L44.0222 226.028L45.4596 227.293C45.9448 227.705 46.4543 228.09 46.9456 228.506C47.4369 228.921 47.9251 229.328 48.4467 229.698L49.9842 230.847C50.242 231.035 50.4907 231.238 50.7545 231.417L51.546 231.963L53.126 233.064C54.1844 233.789 55.2822 234.453 56.3496 235.187L56.292 235.293C55.7128 235.011 55.1336 234.726 54.5604 234.432C53.9872 234.137 53.3989 233.858 52.8379 233.54L51.1578 232.57L50.3178 232.081C50.0419 231.915 49.775 231.73 49.5021 231.557C48.4164 230.853 47.3277 230.144 46.2936 229.361C45.775 228.976 45.2473 228.594 44.7379 228.194L43.2216 226.962L42.4725 226.338L41.7538 225.683L40.3224 224.357L38.9638 222.956C38.7424 222.723 38.512 222.492 38.2906 222.253L37.6507 221.519C35.9325 219.572 34.3421 217.515 32.8896 215.363C31.4205 213.221 30.1032 210.98 28.9472 208.655C26.6159 204.026 24.9468 199.092 23.9889 193.998C23.4974 191.463 23.2406 188.887 23.2217 186.305L23.3551 186.295Z" fill="#010101"/>
<path d="M35.0003 177.286C35.0003 177.286 31.1004 215.111 66.2359 232.221L35.0003 177.286Z" fill="#F59B1B"/>
<path d="M35.0609 177.295C34.9638 178.684 34.9669 180.082 35.0032 181.477C35.0396 182.872 35.1306 184.267 35.2731 185.653C35.5434 188.427 35.9942 191.182 36.6226 193.898C37.8523 199.325 39.8453 204.551 42.5423 209.419C43.9166 211.823 45.4717 214.119 47.1942 216.288L48.5134 217.886C48.7287 218.156 48.9622 218.41 49.1988 218.662L49.9023 219.423L50.5968 220.191C50.8242 220.451 51.085 220.679 51.3246 220.928L52.7924 222.392C53.2988 222.862 53.8174 223.32 54.3299 223.784L55.1032 224.479L55.9099 225.134L57.5232 226.444L59.2033 227.657C60.3071 228.503 61.4989 229.219 62.6604 229.995C63.2305 230.398 63.8461 230.723 64.4436 231.084C65.041 231.445 65.6566 231.79 66.248 232.154L66.1964 232.263C65.5555 231.98 64.9167 231.69 64.2798 231.393C63.649 231.09 62.994 230.823 62.3844 230.483C61.1714 229.801 59.8947 229.167 58.7272 228.36C58.1206 227.981 57.5323 227.608 56.9501 227.211L55.2457 225.956C54.9607 225.746 54.6756 225.537 54.3966 225.322L53.5869 224.639C53.0471 224.181 52.5013 223.73 51.9675 223.266C49.8823 221.35 47.9676 219.257 46.245 217.009C44.5594 214.742 43.0392 212.356 41.6962 209.871C39.0701 204.883 37.1638 199.548 36.0343 194.025C35.4792 191.272 35.1044 188.485 34.9123 185.683C34.8122 184.285 34.7637 182.881 34.7637 181.48C34.7637 180.079 34.8061 178.678 34.9456 177.28L35.0609 177.295Z" fill="#010101"/>
<path d="M56.3164 171.354C56.3164 171.354 38.4605 183.041 36.4287 194.423L56.3164 171.354Z" fill="#F59B1B"/>
<path d="M56.3527 171.405C54.2562 172.93 52.2345 174.547 50.2875 176.258C48.3363 177.944 46.4805 179.738 44.7288 181.631C43.0207 183.535 41.4374 185.546 39.9889 187.654C38.4912 189.727 37.3088 192.01 36.4802 194.429L36.3589 194.408C36.4442 193.085 36.7316 191.783 37.211 190.547C37.6796 189.306 38.2698 188.115 38.973 186.99C39.6704 185.87 40.4574 184.808 41.3263 183.815C42.1996 182.832 43.1003 181.88 44.0283 180.958C45.8895 179.133 47.8494 177.412 49.8994 175.803C50.9244 175.002 51.9706 174.226 53.029 173.474C54.0874 172.722 55.167 171.994 56.2739 171.311L56.3527 171.405Z" fill="#010101"/>
<path d="M66.2205 177.286C66.2205 177.286 44.6224 185.492 38.9272 202.705L66.2205 177.286Z" fill="#F59B1B"/>
<path d="M66.2419 177.343C63.3248 178.64 60.5123 180.161 57.8295 181.892C55.1382 183.586 52.5913 185.499 50.2147 187.612C47.8862 189.746 45.7548 192.085 43.8463 194.602L43.1336 195.542L42.4604 196.512C42.3482 196.676 42.2299 196.834 42.1238 196.997L41.8205 197.498C41.6174 197.834 41.3869 198.159 41.1928 198.502C40.374 199.857 39.6765 201.273 38.979 202.726L38.8638 202.687C39.2274 201.107 39.7549 199.571 40.4377 198.101C41.1247 196.63 41.9363 195.219 42.8637 193.886C43.7976 192.555 44.8425 191.305 45.9873 190.15C47.1367 189.003 48.3285 187.906 49.5749 186.878C52.0631 184.827 54.7165 182.986 57.5081 181.373C58.9031 180.565 60.3183 179.815 61.7537 179.123C63.2033 178.432 64.6711 177.783 66.1782 177.234L66.2419 177.343Z" fill="#010101"/>
<path d="M47.5068 217.655C47.5068 217.655 73.7266 208.206 80.0313 191.396L47.5068 217.655Z" fill="#F59B1B"/>
<path d="M47.4854 217.598C50.7841 216.235 53.9974 214.675 57.1077 212.925C60.221 211.207 63.2113 209.276 66.0569 207.144C67.4754 206.083 68.8369 204.947 70.1357 203.742C71.4306 202.529 72.7043 201.316 73.8901 200.024C74.1933 199.721 74.4966 199.375 74.7756 199.044C75.0546 198.714 75.3609 198.383 75.6308 198.038C75.9007 197.692 76.1857 197.355 76.4556 197.007C76.7255 196.658 76.9742 196.294 77.238 195.942C78.2568 194.488 79.1689 192.961 79.9674 191.375L80.0796 191.417C79.5791 193.159 78.8661 194.833 77.9568 196.4C77.043 197.972 75.9852 199.455 74.7968 200.831C72.4375 203.602 69.5686 205.862 66.627 207.93C65.1552 208.967 63.645 209.943 62.0963 210.856C60.5477 211.77 58.9768 212.637 57.3837 213.458C55.7825 214.267 54.1591 215.029 52.5134 215.745C50.8697 216.458 49.2109 217.131 47.5157 217.713L47.4854 217.598Z" fill="#010101"/>
<path d="M52.5679 223.011C52.5679 223.011 71.6246 224.718 83.3334 201.003L52.5679 223.011Z" fill="#F59B1B"/>
<path d="M52.5712 222.95C54.2289 222.97 55.8836 222.806 57.5052 222.462C59.1243 222.133 60.7129 221.668 62.2543 221.073C65.3298 219.886 68.2057 218.235 70.7819 216.178C72.0537 215.145 73.2581 214.03 74.3876 212.843L75.2155 211.933L75.631 211.481C75.7674 211.326 75.8948 211.178 76.0282 211.011L76.8319 210.08C77.0987 209.777 77.3474 209.44 77.6052 209.122C78.6545 207.857 79.6037 206.511 80.5559 205.161C81.0229 204.479 81.4657 203.778 81.9357 203.093C82.4058 202.407 82.8121 201.68 83.2792 200.97L83.3883 201.022C83.0851 201.801 82.7575 202.574 82.4209 203.344C82.0843 204.115 81.687 204.861 81.2837 205.592C80.4679 207.065 79.5562 208.483 78.5544 209.837C77.5475 211.199 76.4319 212.477 75.2185 213.658C73.9934 214.824 72.7003 215.915 71.3459 216.927C68.634 218.941 65.6291 220.526 62.4362 221.628C60.849 222.164 59.2199 222.566 57.5659 222.832C55.9119 223.106 54.2317 223.186 52.5591 223.071L52.5712 222.95Z" fill="#010101"/>
<path d="M80.031 217.655C80.031 217.655 75.3821 225.304 67.9492 227.111L80.031 217.655Z" fill="#F59B1B"/>
<path d="M80.0825 217.686C79.7696 218.266 79.4243 218.827 79.0484 219.369C78.6784 219.918 78.2842 220.445 77.8748 220.967C77.0462 222.006 76.1333 222.974 75.1455 223.863C74.1823 224.808 73.0823 225.602 71.8824 226.219C71.5791 226.356 71.2759 226.489 70.9453 226.614C70.6148 226.738 70.2964 226.817 69.9719 226.917C69.8051 226.959 69.6444 227.005 69.4806 227.041C69.3168 227.078 69.144 227.09 68.9772 227.111C68.6375 227.147 68.304 227.181 67.9673 227.187L67.937 227.068C69.1106 226.395 70.2357 225.855 71.3062 225.167C71.4461 225.093 71.5818 225.011 71.7126 224.921L72.1159 224.67C72.3858 224.506 72.6648 224.366 72.9286 224.184L73.7444 223.687L74.5268 223.129C75.5492 222.345 76.5178 221.493 77.426 220.579C78.3473 219.661 79.2017 218.677 79.9824 217.637L80.0825 217.686Z" fill="#010101"/>
<path d="M49.7749 187.348C49.7749 187.348 56.9288 201.862 53.1684 215.247L49.7749 187.348Z" fill="#F59B1B"/>
<path d="M49.8298 187.32C50.3847 188.382 50.876 189.476 51.3248 190.586C51.7737 191.696 52.1891 192.824 52.5652 193.965C53.3107 196.254 53.8905 198.594 54.2998 200.967C54.7001 203.341 55.0216 205.768 54.8396 208.197C54.7063 210.624 54.1618 213.011 53.2293 215.256L53.111 215.223C53.2475 214.01 53.4143 212.855 53.4871 211.675C53.5599 210.495 53.6357 209.328 53.6266 208.154C53.6175 206.981 53.6266 205.807 53.5871 204.633C53.5871 204.045 53.5417 203.457 53.5113 202.868C53.481 202.28 53.4143 201.692 53.3415 201.106C53.0563 198.752 52.6033 196.421 51.9859 194.132C51.391 191.826 50.6351 189.565 49.7236 187.366L49.8298 187.32Z" fill="#010101"/>
<path d="M60.2769 180.124C60.2769 180.124 66.6453 191.681 60.2769 211.502V180.124Z" fill="#F59B1B"/>
<path d="M60.3283 180.097C60.9578 181.285 61.4726 182.531 61.8658 183.818L62.1691 184.782L62.4208 185.759C62.6027 186.411 62.7241 187.072 62.8605 187.733C63.3402 190.389 63.5767 193.083 63.5671 195.781L63.5216 197.807V198.314L63.4822 198.817L63.4064 199.83L63.3215 200.84L63.2699 201.346L63.1911 201.847C63.0819 202.511 62.9576 203.178 62.8332 203.839C62.7089 204.5 62.53 205.158 62.3571 205.807C62.1843 206.456 61.9993 207.108 61.8052 207.754C61.3746 209.031 60.8772 210.286 60.3465 211.52L60.2313 211.484C60.4314 210.147 60.7165 208.846 60.9773 207.542C61.0774 206.884 61.2017 206.232 61.3109 205.58C61.42 204.928 61.5717 204.282 61.6414 203.621C61.7112 202.959 61.8325 202.314 61.9447 201.665L62.0296 201.176L62.0872 200.682L62.2146 199.702L62.351 198.72L62.4208 198.229L62.4602 197.734L62.6088 195.757C62.7378 193.11 62.6252 190.457 62.2722 187.83C62.1752 187.175 62.0963 186.514 61.9538 185.868L61.7627 184.888L61.508 183.915C61.1896 182.623 60.7593 181.362 60.2222 180.145L60.3283 180.097Z" fill="#010101"/>
<path d="M69.8233 178.787C69.8233 178.787 75.852 193.267 67.4336 206.741L69.8233 178.787Z" fill="#F59B1B"/>
<path d="M69.8809 178.759C70.357 179.879 70.7552 181.03 71.0727 182.204C71.3989 183.378 71.6661 184.567 71.8733 185.768C72.2716 188.185 72.419 190.637 72.313 193.085C72.2524 194.313 72.1331 195.538 71.9552 196.761C71.7556 197.981 71.4512 199.181 71.0454 200.348C70.9514 200.652 70.824 200.925 70.7148 201.213C70.6057 201.501 70.4995 201.792 70.36 202.068C70.0962 202.626 69.8475 203.19 69.5352 203.721C68.9487 204.795 68.2602 205.811 67.4791 206.753L67.376 206.689C68.3725 204.518 69.2146 202.278 69.8961 199.987C70.2266 198.85 70.5026 197.701 70.7755 196.546C71.033 195.38 71.2234 194.2 71.3456 193.013C71.567 190.629 71.5426 188.228 71.2728 185.85C71.0196 183.453 70.5113 181.09 69.7566 178.802L69.8809 178.759Z" fill="#010101"/>
</svg>
