<svg width="87" height="149" viewBox="0 0 87 149" fill="none" xmlns="http://www.w3.org/2000/svg">
<path d="M1 61.669C12.8602 48.3178 30.5074 24.6962 31.8007 1.2073C31.8115 1.15501 31.8382 1.10733 31.8771 1.07072C31.916 1.03412 31.9652 1.01037 32.0181 1.0027C32.0709 0.995027 32.1248 1.0038 32.1725 1.02784C32.2202 1.05187 32.2594 1.09 32.2846 1.13705L39.5704 20.5511L71.5264 25.3285C71.5264 25.3285 80.285 11.9382 81.37 4.55616C81.369 4.52199 81.3747 4.48796 81.3868 4.45599C81.399 4.42403 81.4173 4.39477 81.4407 4.36988C81.4642 4.345 81.4923 4.32497 81.5234 4.31095C81.5546 4.29692 81.5883 4.28918 81.6224 4.28815C81.6566 4.28713 81.6906 4.29284 81.7226 4.30497C81.7546 4.3171 81.7838 4.33541 81.8087 4.35884C81.8336 4.38228 81.8536 4.41039 81.8676 4.44157C81.8817 4.47275 81.8894 4.50638 81.8904 4.54055C85.424 21.2693 105.478 135.146 1 147.613" fill="#D78247"/>
<path d="M1 61.669C12.8602 48.3178 30.5074 24.6962 31.8007 1.2073C31.8115 1.15501 31.8382 1.10733 31.8771 1.07072C31.916 1.03412 31.9652 1.01037 32.0181 1.0027C32.0709 0.995027 32.1248 1.0038 32.1725 1.02784C32.2202 1.05187 32.2594 1.09 32.2846 1.13705L39.5704 20.5511L71.5264 25.3285C71.5264 25.3285 80.285 11.9382 81.37 4.55616C81.369 4.52199 81.3747 4.48796 81.3868 4.45599C81.399 4.42403 81.4173 4.39477 81.4407 4.36988C81.4642 4.345 81.4923 4.32497 81.5234 4.31095C81.5546 4.29692 81.5883 4.28918 81.6224 4.28815C81.6566 4.28713 81.6906 4.29284 81.7226 4.30497C81.7546 4.3171 81.7838 4.33541 81.8087 4.35884C81.8336 4.38228 81.8536 4.41039 81.8676 4.44157C81.8817 4.47275 81.8894 4.50638 81.8904 4.54055C85.424 21.2693 105.478 135.146 1 147.613" stroke="#010101" stroke-width="1.4" stroke-miterlimit="10"/>
<path d="M20.2397 39.8481C20.2397 39.8481 22.9147 35.742 33.7367 37.3006C42.5082 38.5626 43.7468 49.7437 43.9029 53.9331C43.9368 54.8854 43.3825 55.7545 42.5863 56.0147C39.2635 57.0555 30.3722 58.5673 23.4195 48.4921C21.6926 45.9067 20.6029 42.9489 20.2397 39.8611V39.8481Z" fill="#FCED5D" stroke="#010101" stroke-width="1.4" stroke-miterlimit="10"/>
<path d="M81.9739 54.4769C81.9739 54.4769 81.7475 49.585 71.8831 45.7027C63.3743 42.3539 56.5023 52.9573 54.7693 55.9419C54.6392 56.1467 54.5734 56.3857 54.5803 56.6283C54.5873 56.8708 54.6667 57.1057 54.8083 57.3027C56.5855 59.452 63.4784 66.3163 75.0446 60.4877C77.6857 59.158 80.0588 57.0581 81.9739 54.4769Z" fill="#FCED5D" stroke="#010101" stroke-width="1.4" stroke-miterlimit="10"/>
<path d="M67.1133 60.2197C67.7901 60.2197 68.3388 57.7534 68.3388 54.7111C68.3388 51.6688 67.7901 49.2025 67.1133 49.2025C66.4364 49.2025 65.8877 51.6688 65.8877 54.7111C65.8877 57.7534 66.4364 60.2197 67.1133 60.2197Z" fill="#010101"/>
<path d="M34.5246 47.3795C35.4831 44.3833 35.7209 41.7819 35.0557 41.5691C34.3905 41.3563 33.0742 43.6127 32.1157 46.6089C31.1572 49.605 30.9194 52.2065 31.5846 52.4193C32.2498 52.6321 33.5661 50.3757 34.5246 47.3795Z" fill="#010101"/>
</svg>
