<?xml version="1.0" encoding="utf-8"?>
<!-- Generator: Adobe Illustrator 24.3.0, SVG Export Plug-In . SVG Version: 6.00 Build 0)  -->
<svg version="1.1" xmlns="http://www.w3.org/2000/svg" xmlns:xlink="http://www.w3.org/1999/xlink" x="0px" y="0px"
	 viewBox="0 0 416 258" style="enable-background:new 0 0 416 258;" xml:space="preserve">
<style type="text/css">
	.st0{fill:#FFFFFF;}
	.st1{fill:#010101;}
	.st2{fill:#FFDD55;}

	#moveItem {
		animation: move 5s infinite;
		transform-origin: left center;
		transform:rotate(-3deg);
	}

	@keyframes move {
		0%{transform:rotate(-3deg);}
		35%{transform:rotate(3deg);}
		65%{transform:rotate(3deg);}
		100%{transform:rotate(-3deg);}
	}

	#eyes {
		animation: move2 5s infinite;
	}

	@keyframes move2 {
		40%{transform:translateX(0)}
		45%{transform:translateX(13px)}
		55%{transform:translateX(13px)}
		60%{transform:translateX(0)}
	}
</style>
<g id="body">
	<path class="st0" d="M278.2,254.2l-184.6,0.8c0,0-32-156.5,2.5-242.5c0,0,20.6,39.5,26.5,45.4c0,0,68.8-6.9,92.4-1
		c0,0,5-35.5,6.9-44.4c0,0,27.4,51.4,39.2,141.3c0,0,2.2,8.3,5.5,21.4C276.4,220.5,278.2,254.2,278.2,254.2z"/>
	<path class="st0" d="M268.1,191.1c0,0,9,39.3,9.5,61.6l-182.7-0.5l14.9-49.1L268.1,191.1z"/>
	<path class="st1" d="M271,194c1.7,4,2.9,8,3.9,12.1c1,4.1,3.1,16.8,3.7,21c0.6,4.2,1,8.4,1.2,12.7c0.1,2.2,0.1,4.2-0.1,6.4
		c-0.1,1.1-0.2,2.1-0.4,3.2c-0.1,0.5-0.2,1.1-0.3,1.6c-0.1,0.5-0.2,1-0.4,1.6c-0.4-2.1-0.9-4.2-1.3-6.2c-0.5-2.1-0.9-4.1-1.3-6.2
		c-0.8-4.1-1.5-8.2-2.1-12.4c-0.6-4.1-2.4-16.9-2.7-21.1C270.9,202.6,270.7,198.3,271,194z"/>
	<path class="st1" d="M92.9,251.5c-2.4-10-4.4-20-6.2-30.1c-1.8-10.1-3.5-20.2-4.9-30.3c-0.4-2.5-0.7-5.1-1-7.6
		c-0.3-2.5-0.7-5.1-0.9-7.6c-0.1-1.3-0.2-2.6-0.4-3.8l-0.2-3.9l-0.2-3.9c-0.1-1.3-0.2-2.6-0.2-3.9c-0.7-10.2-1.1-20.5-1.3-30.7
		c0-2.6-0.1-5.1-0.1-7.7v-7.7c0-2.6,0.1-5.1,0.1-7.7c0-1.3,0-2.6,0.1-3.9l0.1-3.9l0.1-3.9l0.1-1.9l0.1-1.9l0.5-7.7
		c0.2-2.6,0.4-5.1,0.6-7.7c0.1-1.3,0.2-2.6,0.3-3.9l0.4-3.9c0.5-5.1,1.3-10.2,2-15.3l1.3-7.6c0.1-0.6,0.2-1.3,0.3-1.9l0.4-1.9
		l0.8-3.8c2.2-10.1,5.1-20.1,8.9-29.8l2.3-5.8l2.9,5.5c2,3.9,4.1,7.7,6.2,11.6s4.2,7.7,6.4,11.5c2.1,3.8,4.3,7.6,6.5,11.3
		c1.1,1.9,2.3,3.7,3.4,5.5c0.6,0.9,1.2,1.8,1.8,2.6c0.3,0.4,0.6,0.9,0.9,1.2l0.4,0.6l0.4,0.5l-2.3-0.8c7.7-0.8,15.5-1.4,23.2-1.9
		c7.7-0.5,15.5-1,23.2-1.2c7.8-0.3,15.5-0.4,23.3-0.2c3.9,0.1,7.8,0.2,11.8,0.6c3.9,0.3,7.9,0.8,11.9,1.8l-3.5,2.4
		c1-7.4,2.1-14.9,3.3-22.3c0.6-3.7,1.1-7.4,1.8-11.1c0.6-3.7,1.2-7.4,2-11.2l1.6-7.6l3.7,7.1c0.8,1.5,1.4,2.8,2.1,4.2
		c0.7,1.4,1.3,2.8,1.9,4.2c0.7,1.4,1.2,2.9,1.8,4.2l0.9,2.1l0.9,2.1l1.8,4.3l1.7,4.3c1.1,2.9,2.1,5.8,3.2,8.7
		c4.1,11.6,7.7,23.4,10.9,35.3l2.3,9l0.6,2.2c0.2,0.8,0.4,1.5,0.6,2.2c0.3,1.5,0.7,3,1,4.5l0.9,4.5c0.3,1.5,0.6,3,0.9,4.5l1.5,9.1
		l0.8,4.6l0.6,4.6l1.3,9.1c0.2,1.5,0.4,3,0.5,4.6l0.5,4.6l1,9.2v-0.1l2.3,10.8l4.5,25.1l-8.5-35.4v-0.1l-1.7-9.1l-0.9-4.6
		c-0.3-1.5-0.6-3-0.9-4.5l-1.9-9l-0.9-4.5l-1-4.5l-2.1-8.9c-0.7-3-1.6-5.9-2.3-8.9c-0.8-3-1.3-6-2.1-8.9l-2.3-8.9
		c-3.2-11.8-6.8-23.4-10.8-34.9c-1-2.9-2-5.8-3.1-8.6l-1.6-4.2l-1.7-4.2l-0.9-2.1l-0.9-2.1c-0.6-1.4-1.2-2.8-1.8-4.1
		c-0.6-1.4-1.2-2.8-1.9-4.1s-1.3-2.7-2-4l5.3-0.8c-0.7,3.5-1.3,7.2-1.9,10.9c-0.6,3.7-1.2,7.4-1.7,11.1c-1.1,7.4-2.2,14.8-3.3,22.2
		l-0.4,3.1l-3.1-0.8c-3.5-0.9-7.3-1.3-11-1.6c-3.7-0.3-7.6-0.5-11.4-0.6c-7.6-0.2-15.3,0-23,0.2c-7.7,0.3-15.4,0.7-23,1.2
		c-7.7,0.5-15.4,1.1-23,1.9l-1.4,0.1l-0.9-1l-0.7-0.8c-0.2-0.2-0.4-0.5-0.6-0.7c-0.4-0.5-0.7-1-1.1-1.4c-0.7-1-1.3-1.9-1.9-2.8
		c-1.2-1.9-2.4-3.8-3.6-5.7c-2.3-3.8-4.5-7.6-6.6-11.5c-2.2-3.9-4.3-7.7-6.4-11.6c-2.1-3.9-4.2-7.8-6.2-11.7l5.2-0.2
		c-3.7,9.3-6.4,19-8.6,28.9l-0.8,3.7l-0.4,1.9c-0.1,0.6-0.2,1.2-0.3,1.9l-1.3,7.5c-0.7,5-1.5,10-2,15.1l-0.4,3.8
		c-0.1,1.2-0.2,2.5-0.3,3.8c-0.2,2.5-0.4,5-0.6,7.6l-0.5,7.6l-0.1,1.9l-0.1,1.9l-0.1,3.8l-0.1,3.8c0,1.3,0,2.5-0.1,3.8
		c0,2.5-0.1,5.1-0.1,7.6v7.6c0,2.5,0.1,5.1,0.1,7.6c0.2,10.1,0.6,20.3,1.3,30.5c0.3,5.1,0.9,10.1,1.2,15.2
		c0.3,5.1,0.6,10.1,0.9,15.2C88,210.9,90,231.2,92.9,251.5z"/>
	<path class="st1" d="M416,250.2H0v8h416V250.2z"/>
	<path class="st2" d="M100.7,103l56.7-2.5c0,0,5,31-27,32.4C98.4,134.4,100.7,103,100.7,103z"/>
	<path class="st1" d="M100.9,100.9c9.1-0.5,18.2-0.9,27.3-1.2c9.8-0.4,19.5-0.7,29.2-0.9l1.7,0l0.2,1.6c0.1,0.6,0.1,1.1,0.1,1.7
		c0,0.5,0,1,0,1.6c0,1,0,2.1,0,3.2c-0.1,2.1-0.4,4.2-0.9,6.3c-0.9,4.1-2.8,8.1-5.5,11.4c-1.4,1.7-3,3.1-4.7,4.3
		c-0.4,0.3-0.9,0.6-1.3,0.9l-1.4,0.8c-0.5,0.2-0.9,0.4-1.4,0.7l-0.7,0.3c-0.2,0.1-0.5,0.2-0.8,0.3c-3.9,1.5-8.1,2.1-12.2,2.2
		c-4.1,0.1-8.2-0.3-12.2-1.6c-0.2-0.1-0.5-0.1-0.8-0.2l-0.7-0.3c-0.5-0.2-0.9-0.4-1.4-0.6l-1.4-0.7c-0.5-0.2-0.9-0.5-1.3-0.8
		c-1.8-1.1-3.4-2.4-4.8-3.9c-2.8-3-4.7-6.8-5.8-10.7c-1.1-3.9-1.6-8-1.3-12.1L100.9,100.9z M100.8,105.1c0.1,3.3,0.7,6.7,1.7,9.8
		c1.2,3.8,3.2,7.4,6,10.2c1.4,1.4,3,2.6,4.7,3.6c0.4,0.2,0.9,0.5,1.3,0.7l1.3,0.6c0.5,0.2,0.9,0.3,1.4,0.5l0.7,0.2
		c0.2,0.1,0.5,0.1,0.7,0.2c3.8,1,7.8,1.3,11.8,1c3.9-0.2,7.9-1,11.4-2.5c0.2-0.1,0.5-0.2,0.7-0.3l0.7-0.3c0.4-0.2,0.9-0.4,1.3-0.7
		l1.2-0.8c0.4-0.2,0.8-0.6,1.2-0.8c1.5-1.1,2.9-2.5,4.1-4c2.3-3,3.8-6.7,4.5-10.4c0.4-1.9,0.6-3.8,0.6-5.8c0-1,0-2,0-2.9
		c0-0.5,0-1-0.1-1.4c0-0.5-0.1-1-0.2-1.4l1.8,1.5c-9.2,0.6-18.4,1.1-27.5,1.6c-9.1,0.5-18.2,0.9-27.3,1.1L100.8,105.1z"/>
	<path class="st2" d="M178.8,100.6l56.5-5.6c0,0,6.6,30.7-25.2,33.8C178.2,131.9,178.8,100.6,178.8,100.6z"/>
	<path class="st1" d="M178.8,98c9-1,18-1.9,27-2.7c9.8-0.9,19.6-1.7,29.2-2.5l1.9-0.1l0.3,1.8c0.1,0.6,0.2,1.1,0.2,1.7
		c0,0.5,0.1,1,0.1,1.6c0.1,1,0.1,2.1,0.1,3.2c0,2.1-0.2,4.2-0.6,6.4c-0.8,4.2-2.3,8.3-4.9,11.8c-1.3,1.8-2.8,3.3-4.5,4.6
		c-0.4,0.3-0.9,0.7-1.3,1l-1.4,0.9c-0.5,0.3-0.9,0.5-1.4,0.8l-0.7,0.4c-0.2,0.1-0.5,0.2-0.7,0.3c-3.9,1.7-8,2.5-12.1,2.9
		c-4.1,0.3-8.3,0.1-12.3-0.9c-0.2,0-0.5-0.1-0.8-0.2l-0.8-0.2c-0.5-0.2-1-0.3-1.5-0.5l-1.4-0.6c-0.5-0.2-0.9-0.5-1.4-0.7
		c-1.8-1-3.5-2.2-5-3.7c-2.9-2.9-5.1-6.6-6.4-10.4c-1.3-3.9-2-7.9-2-12L178.8,98z M179,103c0.3,3.2,1.1,6.3,2.3,9.3
		c1.5,3.7,3.6,7.2,6.6,9.8c1.5,1.3,3.1,2.4,4.9,3.3c0.4,0.2,0.9,0.4,1.3,0.6l1.4,0.5c0.5,0.1,0.9,0.3,1.4,0.4l0.7,0.2
		c0.2,0,0.5,0.1,0.7,0.1c3.8,0.8,7.8,0.9,11.7,0.4c3.9-0.5,7.8-1.5,11.2-3.1c0.2-0.1,0.4-0.2,0.7-0.3l0.6-0.4
		c0.4-0.2,0.9-0.5,1.2-0.7l1.2-0.8c0.4-0.2,0.8-0.6,1.1-0.9c1.4-1.2,2.8-2.6,3.8-4.2c2.1-3.1,3.4-6.8,3.8-10.6
		c0.2-1.9,0.3-3.8,0.3-5.7c0-1-0.1-1.9-0.2-2.9c0-0.5-0.1-1-0.2-1.4c-0.1-0.5-0.1-1-0.2-1.3l2.2,1.6c-9.1,1.1-18.2,2.2-27.3,3.1
		c-9,1-18,1.9-27,2.6L179,103z"/>
</g>
<g id="moveItem">
	<path class="st0" d="M300.2,165.8l36.2-0.9c0,0-3.7-0.5-2.8,4.5s3.3,29-20.6,29.9c-19.2,0.7-25.6-4.5-27.4-8.7"/>
	<path class="st1" d="M300.2,165.6c3-0.7,6-1.1,9-1.4c3-0.3,6-0.6,9.1-0.8c3-0.2,6-0.3,9.1-0.2c3,0,6.1,0.3,9.1,0.6l-0.1,2.5
		c0,0-0.1,0-0.1,0s-0.1,0-0.2,0c-0.1,0-0.2,0-0.4,0c-0.2,0-0.5,0.1-0.6,0.3c-0.4,0.3-0.6,0.9-0.7,1.6c0,0.2,0,0.3,0,0.5l0,0.6
		c0,0.2,0,0.4,0,0.6l0,0.6c0.1,0.9,0.1,1.7,0.2,2.5c0.2,3.3,0.2,6.7-0.1,10.1c-0.2,1.7-0.5,3.4-1.1,5.1c-0.5,1.7-1.3,3.3-2.3,4.9
		c-2,3-5.1,5.4-8.5,6.9c-1.7,0.8-3.4,1.2-5.2,1.6l-1.3,0.2c-0.4,0-0.9,0.1-1.3,0.1c-0.9,0-1.8,0.1-2.6,0.1h-2.5
		c-0.9,0-1.7-0.1-2.5-0.1c-0.9,0-1.7-0.1-2.5-0.2l-1.3-0.1c-0.4,0-0.9-0.1-1.3-0.2c-3.4-0.5-6.7-1.4-9.9-3c-1.6-0.8-3-1.8-4.3-3
		c-1.2-1.2-2.2-2.8-2.7-4.5l0.4-0.2c1.8,2.7,4.7,4,7.6,5c3,0.8,6.1,1.2,9.2,1.4c3.1,0.1,6.3,0.1,9.5,0c1.6,0,3-0.2,4.6-0.4l1.1-0.2
		c0.4,0,0.7-0.1,1.1-0.2l1-0.3c0.3-0.1,0.7-0.2,1-0.3c2.7-0.9,5.2-2.6,7.1-4.8c1.9-2.2,3.4-5,4.3-8.1c0.9-3,1.2-6.3,1-9.5
		c0-0.8-0.1-1.6-0.3-2.4c0-0.4-0.1-0.8-0.2-1.2l-0.1-0.7c0-0.2,0-0.5,0-0.7c0-0.2,0-0.5,0-0.7c0-0.2,0-0.5,0.1-0.8
		c0-0.2,0.1-0.5,0.2-0.8c0-0.1,0.1-0.2,0.2-0.4c0.1-0.1,0.1-0.2,0.2-0.4c0.4-0.5,0.9-0.8,1.4-1c0.3-0.1,0.5-0.2,0.8-0.2
		c0.1,0,0.3,0,0.4,0c0.1,0,0.3,0,0.5,0l-0.1,2.5c-3,0.4-6,0.8-9.1,1c-3,0.2-6,0.2-9.1,0.2c-3,0-6-0.1-9.1-0.3c-3-0.2-6.1-0.5-9.1-1
		L300.2,165.6z"/>
	<path class="st0" d="M119,173.6c4.6,3.7,123.3,15.3,148.9-2.9c0,0-0.8-10,5.8-11.6c0,0,8.2-4.1,9.9,6.6c0,0-1.8-5.8,5.3-7.9
		c7.1-2,10.4,5.4,10.4,5.4s2.6,12.9-7.8,9.3c0,0,8.1,1.5,8.1,9c0,7.5-9.5,8.1-10.2,6.1c0,0-55.6,70.6-149.7,54"/>
	<path class="st1" d="M119,173.6c0.2,0.1,0.3,0.2,0.5,0.2c0.2,0.1,0.4,0.1,0.6,0.2c0.4,0.1,0.8,0.2,1.1,0.3c0.8,0.1,1.5,0.3,2.3,0.4
		c1.6,0.2,3.1,0.5,4.6,0.7c3.1,0.4,6.3,0.7,9.4,1c6.3,0.6,12.5,1,18.8,1.4c6.3,0.4,12.6,0.7,18.8,0.9c6.3,0.2,12.6,0.3,18.8,0.4
		c12.5,0,25.1-0.2,37.5-1.4c6.2-0.6,12.4-1.3,18.4-2.6c3-0.6,6-1.4,8.9-2.4c1.4-0.5,2.8-1,4.2-1.7c1.3-0.6,2.6-1.3,3.7-2.1l-0.9,2
		c0-0.4,0-0.7,0-1c0-0.3,0-0.7,0-1c0-0.7,0-1.3,0.1-2c0.1-1.3,0.4-2.6,0.9-4c0.5-1.3,1.2-2.6,2.3-3.8c0.6-0.6,1.2-1,1.9-1.4
		s1.4-0.7,2.2-0.9l-0.5,0.2c0.1-0.1,0.2-0.1,0.3-0.1l0.3-0.1c0.2,0,0.4-0.1,0.5-0.2c0.3-0.1,0.7-0.2,1.1-0.3
		c0.7-0.1,1.5-0.3,2.3-0.3c0.8,0,1.6,0.1,2.5,0.4c0.8,0.2,1.6,0.7,2.3,1.2c0.7,0.5,1.2,1.1,1.7,1.8c0.5,0.7,0.8,1.3,1.1,2
		c0.6,1.4,0.9,2.7,1.1,4l-4.5,1c0-0.1,0-0.2-0.1-0.3c0-0.1,0-0.2,0-0.3c0-0.2,0-0.3-0.1-0.5c0-0.3,0-0.7-0.1-1c0-0.3,0-0.7,0-1
		l0-0.5l0.1-0.5c0.3-1.3,0.9-2.6,1.8-3.7c0.9-1,2-1.8,3.1-2.3c0.6-0.3,1.1-0.5,1.7-0.7l0.4-0.1l0.4-0.1l0.9-0.2
		c2.4-0.5,5.2,0.1,7.3,1.5c1,0.7,1.9,1.5,2.7,2.4c0.4,0.4,0.7,0.9,1,1.4c0.1,0.2,0.3,0.5,0.5,0.8c0.1,0.3,0.3,0.5,0.4,0.9l0.1,0.2
		l0,0.3c0.1,0.5,0.1,0.8,0.2,1.2c0,0.4,0.1,0.8,0.1,1.1c0,0.8,0,1.5,0,2.3c-0.1,1.5-0.3,3.2-1.3,4.9c-0.5,0.9-1.2,1.7-2.1,2.2
		c-0.9,0.6-1.9,0.9-2.9,1c-1.9,0.2-3.5-0.2-4.9-0.7l1.2-4.5c0.5,0.1,0.7,0.2,1.1,0.3c0.3,0.1,0.7,0.2,0.9,0.3
		c0.6,0.2,1.2,0.5,1.8,0.9c1.2,0.7,2.4,1.5,3.4,2.6c1,1.1,1.8,2.4,2.2,3.9c0.1,0.3,0.2,0.7,0.3,1.1s0.1,0.7,0.2,1.1l0,1.1
		c0,0.4,0,0.7,0,1.1c-0.1,0.8-0.2,1.5-0.5,2.2c-0.3,0.8-0.6,1.5-1.1,2.1c-0.9,1.3-2.2,2.3-3.5,3c-1.3,0.7-2.7,1-4.2,1.1
		c-0.8,0-1.5,0-2.3-0.1c-0.4-0.1-0.9-0.2-1.4-0.5c-0.1-0.1-0.3-0.1-0.4-0.2s-0.3-0.2-0.4-0.3c-0.1-0.1-0.3-0.3-0.5-0.5
		c-0.1-0.2-0.3-0.5-0.4-0.7l3.9,0.6c-0.6,0.8-1.2,1.4-1.8,2.1c-0.6,0.7-1.2,1.3-1.8,2c-1.2,1.3-2.4,2.6-3.7,3.8
		c-2.5,2.5-5.1,4.9-7.7,7.2c-5.3,4.6-10.9,8.9-16.7,12.9c-11.6,8-24.2,14.3-37.4,19.1l-5,1.7c-1.7,0.5-3.4,1-5,1.5
		c-0.9,0.2-1.7,0.5-2.5,0.7l-2.6,0.6l-2.6,0.6l-1.3,0.3c-0.4,0.1-0.9,0.2-1.3,0.2c-6.8,1.5-13.8,2.3-20.8,2.9
		c-1.8,0.1-3.5,0.1-5.2,0.2l-2.6,0.1c-0.9,0-1.8,0-2.6,0l-5.2-0.1c-1.8-0.1-3.5-0.2-5.2-0.3c-3.5-0.1-6.9-0.7-10.4-1.1
		c-1.7-0.2-3.4-0.5-5.1-0.8l-5.1-0.9l5.2,0.6c1.7,0.2,3.4,0.5,5.2,0.5c3.5,0.2,6.9,0.6,10.3,0.6c1.7,0,3.5,0.1,5.2,0.1l5.2-0.1
		c0.9,0,1.7,0,2.6-0.1l2.6-0.2c1.7-0.1,3.4-0.2,5.2-0.4l5.1-0.7c0.9-0.1,1.7-0.2,2.6-0.3l2.6-0.4l2.6-0.4c0.9-0.1,1.7-0.3,2.5-0.5
		l5-1.1c6.7-1.7,13.3-3.6,19.7-6.1c6.4-2.5,12.7-5.3,18.7-8.6c6.1-3.2,11.9-6.9,17.5-10.8c5.6-3.9,11-8.2,16.1-12.8
		c2.6-2.3,5-4.7,7.4-7.1c1.2-1.2,2.4-2.5,3.5-3.7c0.6-0.6,1.1-1.2,1.7-1.9c0.6-0.6,1.1-1.3,1.6-1.9l3.9,0.6c0-0.1-0.1-0.2-0.2-0.3
		c0-0.1-0.1-0.1-0.2-0.2c0,0,0,0-0.1-0.1c0,0,0,0,0,0c0,0,0.1,0,0.2,0c0.3,0,0.7,0.1,1.1,0c0.9,0,1.7-0.3,2.4-0.7
		c0.8-0.4,1.3-0.9,1.8-1.5c0.2-0.3,0.4-0.6,0.5-1c0.1-0.3,0.2-0.7,0.2-1.1c0-0.2,0-0.4,0-0.6l0-0.7c0-0.2,0-0.4-0.1-0.6
		c0-0.2,0-0.4-0.1-0.6c-0.2-0.8-0.7-1.5-1.2-2.1c-0.6-0.6-1.3-1.1-2.1-1.6c-0.4-0.2-0.9-0.4-1.3-0.6c-0.2-0.1-0.4-0.1-0.7-0.2
		c-0.2,0-0.5-0.1-0.6-0.1l1.2-4.5c1,0.4,2.1,0.5,2.8,0.5c0.4,0,0.6-0.1,0.9-0.3c0.2-0.1,0.4-0.3,0.6-0.7c0.4-0.6,0.6-1.7,0.7-2.8
		c0-0.6,0-1.1,0-1.7c0-0.3,0-0.6-0.1-0.9c0-0.3-0.1-0.6-0.1-0.8l0.1,0.5c0,0-0.1-0.3-0.2-0.4c-0.1-0.2-0.2-0.3-0.3-0.5
		c-0.2-0.3-0.4-0.7-0.7-1c-0.5-0.6-1-1.1-1.7-1.5c-0.6-0.4-1.2-0.7-1.8-0.8l-0.1-0.1c-0.1,0-0.2,0-0.2,0c-0.2,0-0.3,0-0.5,0
		c-0.2,0-0.3,0-0.5,0c-0.2,0-0.3,0-0.5,0l-0.5,0.1l-0.3,0l-0.3,0.1c-0.4,0.1-0.8,0.2-1.1,0.4c-0.7,0.3-1.2,0.7-1.6,1.1
		c-0.4,0.4-0.7,1-0.8,1.5l0,0.2v0.2c0,0.1,0,0.3,0,0.5c0,0.1,0,0.3,0,0.5c0,0.1,0,0.1,0,0.2c0,0,0,0.1,0,0.1c0,0,0,0,0,0l-4.5,1
		c-0.1-1-0.4-2-0.8-2.9c-0.2-0.4-0.4-0.8-0.6-1.1c-0.2-0.3-0.5-0.6-0.8-0.8c-0.5-0.4-1.2-0.6-2-0.6c-0.4,0-0.9,0-1.3,0.1
		c-0.2,0-0.4,0.1-0.7,0.2c-0.1,0-0.2,0.1-0.3,0.1l-0.2,0.1l-0.3,0.1l-0.1,0c-0.4,0.1-0.7,0.2-1,0.4c-0.3,0.2-0.6,0.4-0.9,0.7
		c-0.5,0.6-1,1.3-1.3,2.2c-0.3,0.9-0.6,1.9-0.7,2.9c0,0.5-0.1,1-0.1,1.6c0,0.2,0,0.5,0,0.8c0,0.2,0,0.5,0,0.7l0.1,1.3l-1,0.7
		c-1.4,1-2.9,1.8-4.5,2.5c-1.5,0.7-3.1,1.3-4.6,1.8c-3.1,1-6.3,1.8-9.4,2.4c-3.1,0.6-6.3,1.1-9.5,1.5c-3.2,0.4-6.3,0.7-9.5,0.9
		c-6.3,0.4-12.7,0.7-19,0.8c-6.3,0.1-12.6,0-18.9-0.2c-12.6-0.4-25.2-1.2-37.7-2.5c-6.3-0.6-12.5-1.3-18.8-2.2
		c-3.1-0.4-6.2-0.9-9.3-1.5c-1.6-0.3-3.1-0.6-4.6-0.9c-0.8-0.2-1.5-0.4-2.3-0.6c-0.4-0.1-0.8-0.2-1.1-0.3c-0.2,0-0.4-0.1-0.6-0.2
		C119.3,173.8,119.2,173.7,119,173.6z"/>
	<path class="st1" d="M299,140.4c-0.4,0.8-0.6,1.7-0.6,2.6c-0.1,0.9-0.1,1.8,0,2.6c0.3,1.8,1.2,3.2,2.2,4.7c1,1.6,2.7,3.1,3.3,5
		c0.3,1-0.2,2.7-0.3,3.7c-0.1,0.5-0.6,0.8-0.9,1.2c-0.3,0.4-0.8,0.6-1.1,0.9c0.2-0.4,0.4-0.8,0.6-1.2c0.1-0.4,0.1-0.9,0.1-1.2
		c0-0.9-0.1-1.7-0.3-2.6c-0.6-1.7-1.6-3-2.6-4.5c-1-1.6-2.7-2.9-3.1-4.8c-0.1-1,1.1-2.9,1.2-3.9C297.7,141.9,298.2,141,299,140.4z"
		/>
	<path class="st1" d="M323.8,138.7c-0.7,0.6-1.1,1.4-1.5,2.2c-0.4,0.8-0.7,1.6-0.9,2.5c-0.3,1.8,0.1,3.4,0.5,5.2
		c0.4,1.9,1.5,3.9,1.4,5.8c0,1-1.1,2.5-1.5,3.4c-0.3,0.4-0.9,0.5-1.3,0.8c-0.4,0.3-0.9,0.3-1.4,0.4c0.3-0.3,0.7-0.6,0.9-1
		c0.2-0.3,0.4-0.7,0.6-1.1c0.3-0.8,0.5-1.7,0.5-2.5c0-1.8-0.5-3.3-0.9-5.1c-0.4-1.9-1.7-3.6-1.3-5.5c0.2-1,2-2.4,2.5-3.2
		C322.1,139.7,322.9,139.1,323.8,138.7z"/>
	<path class="st1" d="M310.7,130c-0.7,1-1.2,2.2-1.4,3.5c-0.4,1.1-0.6,2.4-0.6,3.6c0,2.5,1,4.7,2,7c1,2.4,3,4.9,3.4,7.5
		c0.2,1.4-0.9,3.7-1.2,5.1c-0.3,0.7-1,0.9-1.5,1.4c-0.5,0.5-1.1,0.7-1.8,1c0.4-0.5,0.8-1,1-1.6c0.2-0.5,0.4-1.1,0.5-1.7
		c0.2-1.2,0.3-2.4,0.1-3.6c-0.4-2.5-1.5-4.4-2.5-6.8c-1-2.5-3.2-4.6-3.2-7.2c0-1.4,2.1-3.8,2.6-5.1
		C308.6,131.8,309.6,130.7,310.7,130z"/>
</g>
<g id="eyes">
	<path class="st1" d="M126.1,101.5c1.5,2.6,2.5,7.9,2.5,14c0,8.7-2,15.8-4.5,15.8c-2.5,0-4.6-7.1-4.6-15.8c0-6,0.9-11.2,2.4-13.9
		L126.1,101.5z"/>
	<path class="st1" d="M204.5,97.2c1.5,2.8,3,7.4,3.8,12.8c1.3,8.7,0.5,15.8-1.9,16c-2.4,0.1-5.4-6.9-6.7-15.5
		c-0.9-5.3-0.9-10-0.2-12.9L204.5,97.2z"/>
</g>
</svg>
