<?xml version="1.0" encoding="utf-8"?>
<!-- Generator: Adobe Illustrator 24.3.0, SVG Export Plug-In . SVG Version: 6.00 Build 0)  -->
<svg version="1.1" xmlns="http://www.w3.org/2000/svg" xmlns:xlink="http://www.w3.org/1999/xlink" x="0px" y="0px"
	 viewBox="0 0 440 555" style="enable-background:new 0 0 440 555;" xml:space="preserve">
<style type="text/css">
	.st0{fill:#FFFFFF;}
	.st1{fill:#010101;}
	.st2{fill:none;stroke:#010101;stroke-width:3;stroke-miterlimit:10;}
	.st3{fill:none;stroke:#010101;stroke-miterlimit:10;}
	.st4{stroke:#010101;stroke-width:3;stroke-miterlimit:10;}
	.st5{display:none;}
	.st6{display:inline;}

	#phead {
		transform-origin: 240px 82%;
		animation: rotate 7s infinite;
	}

	@keyframes rotate {
		0%{transform: rotate(0deg)}
		20%{transform: rotate(-5deg)}
		40%{transform: rotate(0deg)}
		100%{transform: rotate(0deg)}
	}

	#hair {
		transform: rotate(-3deg);
		transform-origin: center top;
		animation: rotate2 7s infinite;
	}

	#hair .st2222 {
		transform: rotate(3deg);
	}

	@keyframes rotate2 {
		10%{transform: rotate(-3deg)}
		30%{transform: rotate(0deg)}
		50%{transform: rotate(-3deg)}
		100%{transform: rotate(-3deg)}
	}

	#openEye {
		animation: openEye 7s infinite;
	}

	@keyframes openEye {
		50% {display: inline;}
		55% {display: none;}
		60% {display: none;}
		61% {display: inline;}
		64% {display: inline;}
		65% {display: none;}
		70% {display: none;}
		71% {display: inline;}
	}

	#closeEye {
		animation: closeEye 7s infinite;
	display: inline;
	opacity: 0;
	}

	@keyframes closeEye {
		55% {opacity: 0;}
		56% {opacity: 1;}
		60% {opacity: 1;}
		61% {opacity: 0;}
		65% {opacity: 0;}
		66% {opacity: 1;}
		70% {opacity: 1;}
		71% {opacity: 0;}
	}

</style>
<g id="body">
	<path class="st0" d="M142.6,336.5c2,1.6,16.7,53.3,16.7,53.3s7.1-4.8-19.4-7.8c-26.5-3-140.4-16.8-137.7,73.3
		c2.7,90.1,18.2,99.3,18.2,99.3h363.6c0,0,9.6-33.6-3.5-79s-26.3-72.7-124-69c0,0-10,12,0.7-40.8c10.7-52.8-115.5-29.4-115.5-29.4
		L142.6,336.5L142.6,336.5z"/>
	<path class="st1" d="M149.1,353.2c1.7,5.6,3.3,11.2,4.8,17c0.7,2.8,1.4,5.7,2,8.6c0.6,2.9,1.2,5.8,1.6,8.8l0.1,1.1h-1.3
		c-0.1,0-0.4,0-0.5,0.1c-0.2,0-0.4,0.1-0.6,0.1c-0.4,0.1-0.8,0.3-1.1,0.5c-0.7,0.4-1.2,1.1-1.6,1.8c-0.8,1.5-1.1,3.4-1.2,5.3
		c-0.1,3.8,0.7,7.8,1.7,11.6c2,7.7,5.1,15.1,8.4,22.5c3.2,7.3,6.9,14.5,11.4,20.9c0.6,0.8,1.1,1.6,1.7,2.4l1.8,2.3
		c1.3,1.4,2.6,2.8,4,4c0.4,0.4,0.7,0.6,1.1,0.8c0.4,0.3,0.8,0.6,1.1,0.8l1.1,0.6c0.4,0.2,0.8,0.4,1.2,0.5c0.2,0.1,0.4,0.1,0.6,0.2
		l0.6,0.1c0.4,0.1,0.7,0.1,1.1,0.1c0.1,0,0.1,0,0.2,0l0.6-0.2l1.4-0.6c14.8-6.3,29.3-13.4,43.1-21.5c6.8-4.1,13.6-8.6,19.7-13.7
		c3-2.5,5.9-5.3,8.4-8.3c2.5-3,4.6-6.4,5.5-10l1.5,1.6c-1.1,0.1-2.1,0.1-3.2,0.1c-1.1-0.1-2.1-0.2-3.1-0.4c-2-0.5-4.1-1.3-5.7-2.8
		c-1.6-1.5-2.7-3.5-3.1-5.6c-0.4-2.1-0.4-4.1-0.3-6.1c0.2-4,1-7.9,1.9-11.7c0.5-1.9,1-3.8,1.6-5.7s1.2-3.7,1.8-5.6
		c-1.1,3.8-1.9,7.6-2.5,11.5c-0.6,3.9-1.2,7.8-1.2,11.6c0,1.9,0.1,3.8,0.6,5.7c0.4,1.8,1.3,3.3,2.7,4.5c1.3,1.1,3,1.8,4.8,2.1
		c0.9,0.1,1.8,0.3,2.8,0.3s1.9,0,2.7-0.1l1.8-0.3l-0.4,1.8c-0.9,4.3-3.1,8.1-5.6,11.3c-2.5,3.3-5.5,6.2-8.5,9
		c-6.1,5.4-12.9,10.1-19.8,14.4c-6.9,4.3-14.1,8.2-21.3,11.9c-7.3,3.6-14.6,7.1-22.2,10.3l-1.4,0.6l-0.4,0.1l-0.2,0.1l-0.1,0.1
		c-0.1,0-0.1,0.1-0.2,0.1c-0.4,0.1-0.6,0.1-0.8,0.1c-0.2,0-0.4,0.1-0.6,0.1c-0.7,0.1-1.3-0.1-2-0.1l-0.9-0.2
		c-0.3-0.1-0.6-0.1-0.8-0.3c-0.6-0.2-1.1-0.4-1.6-0.7l-1.5-0.8c-0.5-0.3-0.9-0.6-1.3-1s-0.9-0.6-1.3-1c-1.7-1.4-3.1-3-4.5-4.5
		l-2-2.5c-0.6-0.8-1.2-1.7-1.8-2.5c-4.7-6.9-8.3-14.3-11.4-21.8c-1.6-3.7-3.1-7.6-4.4-11.4c-1.3-3.9-2.5-7.8-3.5-11.8
		c-0.9-4-1.6-8.1-1.3-12.5c0.1-2.1,0.6-4.3,1.8-6.4c0.6-1,1.5-1.9,2.5-2.5c0.5-0.3,1.1-0.6,1.7-0.7c0.3-0.1,0.6-0.1,0.9-0.1
		c0.4,0,0.6-0.1,1,0l-1.1,1.1c-0.2-2.9-0.6-5.8-1.1-8.6c-0.4-2.9-1-5.8-1.6-8.6c-0.6-2.9-1.1-5.7-1.8-8.6
		C150.4,359,149.8,356.1,149.1,353.2z"/>
	<path class="st1" d="M261.2,404.1c9.7-1,19.6-0.9,29.4-0.1c9.8,0.8,19.6,2.3,29.2,4.7c9.5,2.5,18.9,5.9,27.7,10.6
		c1.1,0.6,2.2,1.2,3.2,1.8c1.1,0.6,2.2,1.3,3.2,1.9l3.2,2.1c1.1,0.7,2.1,1.5,3.1,2.3c4,3.3,7.5,7.1,10.4,11.4
		c5.8,8.4,9.7,17.8,12.7,27.4s4.7,19.5,5.6,29.4c0.9,9.9,1.1,19.8,0.8,29.7c-0.4,9.8-1.2,19.7-3,29.4l-0.7-0.1
		c-0.5-19.6-1.5-39.1-4.1-58.2c-1.3-9.6-3-19-5.4-28.3c-2.4-9.2-5.6-18.3-10.7-26.2c-2.5-3.9-5.5-7.6-9-10.5
		c-0.8-0.8-1.8-1.4-2.7-2.1l-3-2.1c-1-0.7-2-1.3-3-1.9c-1-0.6-2-1.3-3.1-1.8c-8.3-4.8-17.2-8.5-26.5-11.3c-9.2-2.8-18.8-4.8-28.4-6
		c-4.8-0.6-9.7-1-14.5-1.3c-4.9-0.2-9.7-0.4-14.6-0.1L261.2,404.1z"/>
	<path class="st1" d="M19.6,555c-1.2-1.1-2.1-2.3-3-3.5c-0.9-1.2-1.7-2.5-2.4-3.8c-1.5-2.6-2.8-5.4-3.9-8.2c-1.1-2.8-2-5.7-3-8.6
		c-0.8-2.9-1.6-5.9-2.3-8.8c-1.3-5.9-2.3-11.9-3-17.9c-0.8-6-1.2-12-1.6-18C-0.1,474.1,0,462,0.6,450l0.2-4.5c0.1-1.6,0.2-3,0.4-4.6
		c0.3-3,0.8-6.2,1.5-9.2c1.3-6.1,3.5-12,6.6-17.5c3-5.5,7-10.5,11.5-14.9c4.6-4.3,9.7-8,15.3-11c11-6,23.2-9.3,35.3-11
		c6.1-0.8,12.2-1.2,18.3-1.4c3-0.1,6.1,0,9.1,0.1c3,0.1,6.1,0.2,9.1,0.5c3,0.2,6.1,0.5,9,0.9c3,0.4,6,0.8,9,1.3
		c5.9,1.1,11.9,2.2,17.7,3.9l-0.1,0.7c-11.9-1.2-23.9-1.7-35.8-1.6c-5.9,0.1-11.9,0.2-17.7,0.7c-5.9,0.4-11.7,1.1-17.5,2.1
		c-5.8,1-11.5,2.2-17.1,3.8c-2.8,0.8-5.5,1.7-8.3,2.8c-2.7,1.1-5.4,2.2-7.9,3.4c-5.2,2.5-10,5.7-14.3,9.5c-4.3,3.8-8,8.2-10.9,13.2
		c-2.9,5-5.1,10.3-6.5,15.9c-0.7,2.8-1.3,5.7-1.6,8.6c-0.2,1.5-0.4,2.9-0.5,4.4l-0.4,4.5c-0.5,5.9-0.8,12-1,17.9
		c-0.1,5.9-0.2,12-0.1,17.9c0.1,5.9,0.4,12,0.9,17.9c0.5,5.9,1.3,11.9,2.4,17.8c0.6,3,1.2,5.9,1.9,8.8c0.8,2.9,1.6,5.7,2.6,8.6
		c1,2.8,2.1,5.6,3.5,8.2c0.7,1.3,1.4,2.6,2.2,3.9c0.8,1.2,1.7,2.5,2.7,3.5L19.6,555z"/>
	<path class="st1" d="M143.3,388.3c-1.4,1.9-2.5,4-3.4,6.2c-0.8,2.2-1.5,4.5-1.9,6.7c-0.8,4.6-0.8,9.3,0.1,13.8
		c1.6,9.1,5.8,17.5,10.9,25.2l2,2.8c0.7,0.9,1.4,1.9,2.1,2.8c1.4,1.9,2.8,3.8,4.3,5.7c1.5,1.8,2.9,3.7,4.4,5.6l2.2,2.8l2.3,2.7
		c3,3.6,6.1,7.1,9.4,10.3c1.6,1.6,3.3,3.2,5,4.7l1.3,1.1l1.3,1c0.4,0.3,0.8,0.6,1.3,0.8c0.2,0.1,0.4,0.3,0.6,0.4
		c0.1,0.1,0.2,0.1,0.2,0.1h0.1c-0.1,0-0.1,0-0.1-0.1l-2.3,0.1c9.5-3.9,19.1-8.1,28.4-12.5c9.4-4.5,18.6-9.1,27.6-14.2
		c9-5.1,17.8-10.6,25.8-17.1c4-3.3,7.8-6.8,10.9-10.8c1.6-2.1,3-4.2,4-6.5c1.1-2.3,1.8-4.9,1.8-7.5c0.3,2.6-0.1,5.3-0.8,7.9
		c-0.8,2.5-2,5-3.4,7.3c-2.8,4.6-6.4,8.6-10.2,12.3c-7.7,7.4-16.3,13.7-25.2,19.3c-8.9,5.7-18.1,10.8-27.5,15.5
		c-4.7,2.3-9.5,4.6-14.3,6.8c-4.8,2.2-9.6,4.2-14.5,6.2l-1.2,0.5l-1.1-0.4l-0.4-0.1l-0.2-0.1l-0.4-0.1c-0.2-0.1-0.4-0.2-0.6-0.3
		c-0.4-0.2-0.6-0.4-1-0.6c-0.6-0.4-1.1-0.8-1.7-1.1l-1.6-1.2l-1.5-1.2c-1.9-1.6-3.7-3.4-5.4-5.2c-1.7-1.8-3.3-3.6-4.9-5.4
		c-1.6-1.8-3.1-3.7-4.6-5.6l-2.3-2.8l-2.2-2.9c-1.5-1.9-2.8-3.9-4.2-5.9c-1.4-1.9-2.8-4-4.1-5.9c-0.7-1-1.3-2-2-3l-2-3.1
		c-2.5-4.2-4.7-8.6-6.4-13.2c-0.8-2.3-1.6-4.7-2.1-7.1c-0.6-2.4-1-4.9-1.1-7.4c-0.2-2.5-0.1-5,0.1-7.4c0.2-2.5,0.6-4.9,1.4-7.2
		C137.7,396.1,139.9,391.6,143.3,388.3z"/>
	<path class="st2" d="M333.7,529.4c1.3-10.9-3.3-22.4-3.3-22.4l-3.5,5.9h-13.9l-5.4-5.4l-2.1,10.9c0,0-1.9,7.4,1.5,12.7"/>
	<path class="st3" d="M309,519.7c0,0,3.8-3.3,7.6,0.3c3.7,3.5-5.2,2.6-5.5,2.5C310.6,522.3,308,521.5,309,519.7z"/>
	<path class="st3" d="M329.7,519.7c0,0-3.8-3.3-7.6,0.3c-3.7,3.5,5.2,2.6,5.5,2.5C328.1,522.3,330.6,521.5,329.7,519.7z"/>
	<path class="st1" d="M313.1,522.7c0.4,0,0.6-1,0.6-2.2s-0.3-2.2-0.6-2.2c-0.4,0-0.6,1-0.6,2.2S312.8,522.7,313.1,522.7z"/>
	<path class="st1" d="M325.3,522.7c0.4,0,0.6-1,0.6-2.2s-0.3-2.2-0.6-2.2c-0.4,0-0.6,1-0.6,2.2S325,522.7,325.3,522.7z"/>
	<path class="st3" d="M317.9,526.8c0,0,0.7,0.7,1.4,0.8c0,0,0.6,0,1.4-0.8"/>
	<path class="st3" d="M319.3,528.9v-1.3"/>
</g>
<g id="phead">
	<g id="mainHead">
		<path class="st0" d="M184.8,62.7l45.8-40l119.6,32.7l30.4,167.7l-10.1,60.6c-53.9,114.6-233.7,135.2-275.1-9.8
			C53.9,128.9,184.8,62.7,184.8,62.7z"/>
		<path class="st1" d="M184.8,62.7l22.6-20.4L230,22l0.3-0.3l0.4,0.1l60,15.7l59.9,15.8l1.2,0.3l0.2,1.2l15.7,83.8l7.8,41.9
			l7.8,41.9l0.1,0.5l-0.1,0.6l-4.9,30.3l-4.9,30.3l-0.1,0.4l-0.2,0.4c-5.5,11.7-12.4,22.8-20.6,32.8c-8.2,10-17.5,19.1-27.7,27
			c-20.5,15.7-44.7,26.6-70,31.6c-12.7,2.5-25.7,3.4-38.6,2.7c-12.9-0.7-25.8-3.3-38-7.6c-6.1-2.2-12.1-4.7-17.8-7.8
			c-5.7-3-11.2-6.6-16.4-10.5c-5.2-3.9-10-8.2-14.6-12.8c-4.5-4.7-8.7-9.6-12.5-14.9c-7.6-10.5-13.6-22-18.4-34
			c-2.3-6-4.4-12.1-6-18.3l-1.2-4.7c-0.4-1.6-0.7-3.1-1.1-4.7c-0.8-3.1-1.3-6.3-2-9.4c-4.7-25.3-4.3-51.6,2.1-76.4
			c3.2-12.5,7.9-24.4,14-35.7c6-11.3,13.3-21.9,21.5-31.6c8.3-9.8,17.4-18.7,27.3-26.7c4.9-4,10-7.8,15.3-11.4
			C173.8,68.9,179.2,65.6,184.8,62.7c-5.6,3-10.9,6.6-16,10.3c-5.2,3.7-10.1,7.6-14.9,11.7c-9.6,8.3-18.5,17.3-26.4,27.2
			c-7.9,9.8-14.9,20.4-20.6,31.6c-5.7,11.2-10.1,23.1-13.1,35.3s-4.5,24.8-4.6,37.3c-0.1,6.3,0.3,12.5,0.8,18.8
			c0.6,6.2,1.6,12.5,2.7,18.6c0.6,3,1.3,6.2,2,9.2c0.4,1.6,0.7,3,1.1,4.6l1.3,4.5c1.7,6,3.7,12,6.1,17.8
			c4.7,11.6,10.7,22.6,18.1,32.7c3.7,5,7.8,9.8,12.1,14.1c4.4,4.4,9,8.5,14.1,12.2c5,3.7,10.2,7,15.7,9.8c5.5,2.9,11.2,5.3,17,7.4
			c11.7,4,24,6.3,36.4,7c12.4,0.7,24.9-0.3,37.1-2.7c24.4-4.8,47.7-15.4,67.4-30.5c9.9-7.6,18.9-16.3,26.8-25.9
			c7.8-9.6,14.5-20.2,19.8-31.5l-0.3,0.8l5.1-30.3l5.2-30.2v1l-7.5-42l-7.4-41.9l-14.7-84l1.4,1.6L290,40.4l-59.7-17l0.8-0.1L208,43
			L184.8,62.7z"/>
		<path class="st1" d="M250.1,249.4c0,0-2.2,0.1-2.2,2c0,1.9,2.3,2,2.4,1.8c0.1-0.1,2.6-0.1,2.6-1.7
			C253,250.1,251.8,248.7,250.1,249.4z"/>
		<path class="st1" d="M113.9,152.6c2.8-1.3,5.6-2.1,8.5-2.9c2.9-0.7,5.9-1.2,8.8-1.6c5.9-0.7,12-0.7,18,0c6,0.7,11.9,2.2,17.6,4.5
			c2.8,1.2,5.5,2.6,8,4.3l1.8,1.3c0.6,0.4,1.2,0.9,1.8,1.4c1.2,0.9,2.3,2.1,3.2,3.1c-2.9-0.9-5.6-1.9-8.4-2.8
			c-2.8-0.8-5.5-1.6-8.3-2.2c-5.5-1.3-11.1-2.1-16.7-2.8c-5.6-0.7-11.3-1.1-17-1.5C125.7,153.3,119.9,153,113.9,152.6z"/>
		<path class="st1" d="M236.7,174.5c3.1-0.8,6.3-1.2,9.5-1.5c3.2-0.2,6.4-0.2,9.6-0.1c6.4,0.4,12.8,1.3,19,3.2
			c6.2,1.8,12.2,4.3,17.7,7.8c2.8,1.7,5.4,3.7,7.8,5.9l1.8,1.7c0.6,0.6,1.1,1.2,1.6,1.8c1.1,1.2,2,2.5,3,3.8
			c-2.8-1.6-5.5-3.1-8.3-4.5c-2.8-1.3-5.5-2.6-8.3-3.8c-5.6-2.3-11.4-4.2-17.2-5.9c-5.9-1.7-11.7-3.1-17.8-4.5
			C249,177,242.9,175.8,236.7,174.5z"/>
		<path class="st1" d="M148.5,298.1c1-0.2,1.6,0,1.9,0.2c0.2,0.1,0.3,0.3,0.5,0.5l0.5,0.5c0.3,0.3,0.6,0.7,0.9,1
			c0.3,0.3,0.6,0.7,0.9,1c1.3,1.3,2.6,2.5,3.9,3.7c2.7,2.4,5.6,4.5,8.8,6.2c0.7,0.4,1.6,0.8,2.4,1.2l1.2,0.6l1.3,0.5
			c0.9,0.3,1.7,0.7,2.6,0.8c0.9,0.2,1.7,0.5,2.7,0.6l2.7,0.4c0.4,0,0.9,0.1,1.4,0.1l1.4,0.1c1.9,0.1,3.8,0.2,5.7,0.5l2.9,0.4
			l2.8,0.5l5.5,0.9c3.6,0.6,7.2,0.9,10.7,0.7c0.4,0,0.9,0,1.3,0l1.3-0.2c0.9-0.1,1.8-0.2,2.7-0.3l2.7-0.4l2.7-0.5
			c0.9-0.1,1.7-0.3,2.7-0.5l2.7-0.5c0.9-0.2,1.8-0.4,2.7-0.3c1,0.1,2,0.4,3.2,1.2l0.2,0.7c-0.6,1.2-1.4,1.9-2.2,2.6
			c-0.8,0.6-1.7,0.9-2.7,1.1c-1.9,0.4-3.7,0.9-5.6,1.2c-3.8,0.7-7.7,0.9-11.6,0.8c-3.9-0.2-7.8-1-11.5-2l-5.4-1.5l-2.7-0.7l-2.7-0.5
			c-0.9-0.2-1.8-0.3-2.7-0.4c-0.9-0.2-1.8-0.2-2.7-0.2l-1.4-0.1c-0.5,0-1-0.1-1.4-0.1l-2.9-0.4c-1.9-0.4-3.8-0.7-5.6-1.3l-1.4-0.4
			l-1.4-0.5c-0.9-0.4-1.8-0.7-2.7-1.1c-3.5-1.5-6.9-3.6-9.9-5.9c-0.7-0.6-1.5-1.2-2.2-1.9l-1.1-1l-1-1c-0.7-0.7-1.3-1.4-2-2.1
			l-0.5-0.5c-0.2-0.2-0.3-0.4-0.4-0.6c-0.2-0.5-0.2-1.1,0.2-2L148.5,298.1z"/>
		<path class="st1" d="M166.1,325.6c1.1,0.6,2.1,1.1,3.2,1.5c0.8,0.7,1.7,1.3,2.6,2c1.8,1.2,3.8,2.1,5.9,2.8c0.5,0.1,1,0.4,1.6,0.4
			l1.6,0.4c0.6,0.1,1.1,0.1,1.6,0.2c0.3,0,0.6,0.1,0.8,0.1h0.8c0.6,0,1.1,0,1.6,0c0.6-0.1,1.1-0.1,1.6-0.2c0.6,0.1,1.1,0.1,1.7,0.2
			c0.6,0.1,1.2,0.1,1.8,0.1c-0.5,0.4-1,0.6-1.6,0.9c-0.5,0.3-1.1,0.6-1.6,0.8c-0.6,0.1-1.2,0.1-1.8,0.2c-0.6,0.1-1.2,0-1.8,0h-0.9
			c-0.3,0-0.6-0.1-0.9-0.1c-0.6-0.1-1.2-0.1-1.8-0.2l-1.8-0.4c-0.6-0.1-1.1-0.4-1.7-0.5c-2.3-0.7-4.4-1.8-6.4-3
			c-0.5-0.4-1-0.6-1.5-1c-0.4-0.4-0.9-0.7-1.4-1.1C167.2,327.8,166.6,326.7,166.1,325.6z"/>
		<path class="st1" d="M185.1,251.4c-1.9,0.1-3.6,0.7-4.9,1.6c-1.3,0.9-2.2,2.1-2.8,3.4c-0.4,0.6-0.6,1.4-0.8,2.1
			c-0.1,0.4-0.2,0.8-0.3,1.1c-0.1,0.4-0.2,0.8-0.3,1.2c-0.3,1.7-0.5,3.1-0.4,4.4c0.2,1.2,0.6,2.2,1.6,3.1c0.4,0.5,1.1,0.8,1.6,1.3
			c0.6,0.4,1.3,0.8,2.1,1.1c1.5,0.6,3.2,1.2,4.9,1.6c1.8,0.5,3.5,0.9,5.4,1.3c-1.8,0.8-3.7,1.2-5.6,1.4c-1.9,0.2-4,0.2-5.9-0.1
			c-2-0.4-4.1-1.1-6-2.5c-0.9-0.8-1.8-1.7-2.5-2.8c-0.6-1.1-1-2.3-1.2-3.5c-0.1-1.2-0.1-2.4,0-3.5l0.1-0.8c0.1-0.3,0.1-0.5,0.2-0.8
			c0.1-0.5,0.3-1,0.4-1.5c0.1-0.5,0.4-1,0.5-1.5c0.2-0.5,0.4-1,0.6-1.4c0.3-0.5,0.5-0.9,0.8-1.4l0.2-0.4l0.3-0.4l0.5-0.6
			c1.4-1.7,3.4-3,5.5-3.5c0.3-0.1,0.6-0.1,0.8-0.1c0.3,0,0.5-0.1,0.8-0.1c0.6,0,1.1,0,1.6,0.1C183.3,250.4,184.2,250.8,185.1,251.4z
			"/>
		<path class="st3" d="M284.3,62.7c-0.8,3.3,2.5,165.5,39.7,192.8c37.3,27.3-34.1,140.8-34.1,140.8l101.2,17.7
			c34.8-24.1,77.1-215.1,21.5-322.2c-55.6-107.1-143-89.1-143-89.1S116.1-31,80.4,157.1c0,0-3.6,11,6.8,40.3"/>
		<path class="st1" d="M284.3,62.7c2,2.8,2.5,165.5,39.7,192.8c37.3,27.3-34.1,140.8-34.1,140.8l101.2,17.7
			c34.8-24.1,77.1-215.1,21.5-322.2c-55.6-107.1-143-89.1-143-89.1S116.1-31,80.4,157.1c0,0-3.6,11,6.8,40.3c0,0,5.6-74.8,94.7-133
			C231.3,32.1,248,46.5,248,46.5S268.7,40.2,284.3,62.7z"/>
		<path class="st1" d="M89.5,147.6c-1.8,0.1-3.7,0.5-5.5,1c-1.8,0.6-3.5,1.3-5,2.3c-1.6,1-3,2.2-4.2,3.6c-1.2,1.3-2.1,3-2.8,4.6
			c-1.4,3.3-2,7-2,10.7c0,3.7,0.5,7.4,1.3,11c0.8,3.6,2,7.2,3.2,10.7l2,5.2c0.4,0.8,0.7,1.8,1.1,2.6l1.1,2.6
			c0.6,1.8,1.4,3.5,2.1,5.2c0.6,1.8,1.5,3.5,2.2,5.2c1.4,3.5,3,6.9,4.4,10.5l-0.3,0.1c-2.2-3.1-4.4-6.3-6.3-9.6
			c-2-3.3-3.7-6.7-5.4-10.2c-0.8-1.8-1.6-3.5-2.3-5.3c-0.6-1.8-1.3-3.6-1.9-5.4c-1.1-3.7-2-7.4-2.7-11.2c-0.7-3.8-1.1-7.7-0.9-11.6
			c0.1-3.9,0.9-7.9,2.7-11.4s4.6-6.5,8-8.4c3.5-1.8,7.3-2.8,11.1-2.8V147.6z"/>
		<path class="st1" d="M90.5,253.3c0,0-10.9,52.6-19.2,62.8l45.4,4.4C116.7,320.4,87.5,267.8,90.5,253.3z"/>
	</g>
	<g id="openEye">
		<path class="st1" d="M121,193.6c0.2-0.3,0.4-0.6,0.5-1c0.1-0.4,0.2-0.7,0.4-1.1c0.2-0.7,0.4-1.5,0.8-2.1s0.7-1.3,1.2-1.8
			c0.5-0.6,1.1-1,1.6-1.4c2.3-1.8,4.7-3.3,7.4-4.5c2.7-1.1,5.6-1.9,8.7-2c0.8-0.1,1.5,0,2.3,0c0.8,0.1,1.5,0.1,2.3,0.3
			c1.5,0.2,2.9,0.6,4.3,1.2c5.3,2.1,9.9,5.3,14,9.1c4,3.8,7.6,7.9,10.4,12.6l-1.1,0.7c-3.2-4.2-7-7.9-11.2-11.1
			c-4.2-3.1-8.8-5.7-13.6-7.1c-1.2-0.4-2.3-0.6-3.5-0.7c-1.2-0.1-2.3-0.1-3.5,0c-1.2,0.1-2.3,0.4-3.5,0.7c-1.1,0.4-2.3,0.8-3.3,1.3
			c-2.1,1.1-4.2,2.4-6.1,4c-0.5,0.4-0.9,0.8-1.4,1.2s-1.1,0.6-1.7,0.9c-0.6,0.3-1.3,0.5-2,0.8c-0.4,0.1-0.6,0.3-1,0.4
			c-0.3,0.1-0.6,0.4-0.8,0.6L121,193.6z"/>
		<path class="st1" d="M123.1,185.7L123.1,185.7l0.1-0.1l0.1-0.1l0.1-0.1l0.4-0.4c0.2-0.2,0.4-0.4,0.6-0.6c0.4-0.4,0.9-0.8,1.3-1.3
			c0.9-0.8,1.9-1.6,3-2.3c2-1.3,4.3-2.5,6.7-3.3c2.4-0.8,4.9-1.2,7.4-1.1c2.5,0.1,5,0.8,7.2,1.8v0.1c-2.4-0.7-4.8-1.2-7.2-1.2
			c-2.4-0.1-4.9,0.2-7.2,0.9c-2.3,0.7-4.6,1.8-6.6,3c-1.1,0.6-2,1.3-3,2.1c-0.5,0.4-1,0.8-1.4,1.2c-0.2,0.2-0.4,0.4-0.7,0.6
			l-0.4,0.4l-0.1,0.1l-0.1,0.1H123.1C123.2,185.7,123.2,185.6,123.1,185.7z"/>
		<path class="st1" d="M127.3,210c-0.9,0.2-1.8,0.5-2.6,0.8c-0.4,0.1-0.8,0.4-1.1,0.6c-0.4,0.2-0.8,0.4-1.1,0.6h-0.1
			c0-0.6,0.4-1,0.8-1.3c0.4-0.3,0.9-0.4,1.3-0.5C125.4,210.1,126.4,210,127.3,210z"/>
		<path class="st1" d="M135.1,213.8c-0.4,0.1-0.6,0.4-0.8,0.7c-0.2,0.3-0.4,0.6-0.6,0.8c-0.2,0.3-0.3,0.6-0.5,0.9
			c-0.2,0.3-0.4,0.5-0.5,0.8l-0.1,0.1c-0.2-0.1-0.2-0.4-0.2-0.6c0-0.2,0.1-0.4,0.1-0.6c0.1-0.4,0.4-0.6,0.7-0.9
			c0.3-0.3,0.6-0.6,0.8-0.8C134.3,214,134.6,213.8,135.1,213.8z"/>
		<path class="st1" d="M143.5,217.2c-0.1,0.5-0.3,1-0.4,1.5c-0.1,0.3,0,0.5-0.1,0.8c-0.1,0.2-0.1,0.5-0.4,0.7h-0.1
			c-0.2-0.3-0.3-0.6-0.3-0.8c0-0.3,0.1-0.6,0.3-0.8C142.8,218,143.1,217.5,143.5,217.2z"/>
		<path class="st1" d="M229.2,217.7c0.4-1.6,1.1-3,1.8-4.3c0.8-1.3,1.7-2.7,2.7-3.9c2-2.5,4.7-4.5,7.8-5.9c3-1.3,6.5-1.8,9.7-1.6
			c3.3,0.3,6.4,1.2,9.4,2.5c1.4,0.6,2.8,1.3,4.2,2c1.3,0.7,2.8,1.4,4.1,2.1c1.3,0.8,2.7,1.6,4,2.3c1.3,0.8,2.6,1.6,3.9,2.5
			c2.5,1.8,4.9,3.6,7.2,5.7c1.1,1,2.3,2.1,3.3,3.2c1.1,1.1,2.1,2.3,3,3.5l-0.6,0.6c-4.4-4-9.5-7.2-14.6-10.3
			c-2.5-1.5-5.2-2.9-7.8-4.2c-1.3-0.7-2.7-1.3-4-1.9l-4.1-1.8c-2.6-1.1-5.3-1.8-8-2.1c-2.8-0.1-5.4,0.2-8,1.1
			c-5.1,1.9-9.5,5.9-13,10.7L229.2,217.7z"/>
		<path class="st1" d="M261.2,233.9c0.5,0.4,0.9,0.8,1.3,1.3c0.2,0.2,0.4,0.5,0.4,0.8c0.1,0.3,0,0.8-0.4,1h-0.1
			c-0.1-0.4-0.1-0.5-0.3-0.7c-0.1-0.2-0.1-0.5-0.3-0.8C261.7,234.9,261.4,234.5,261.2,233.9z"/>
		<path class="st1" d="M269.7,233.3c0.3-0.1,0.6,0.1,0.8,0.1c0.2,0.1,0.4,0.3,0.6,0.4c0.2,0.1,0.4,0.4,0.6,0.6
			c0.1,0.3,0.1,0.6,0,0.8h-0.1c-0.2-0.2-0.4-0.4-0.5-0.5c-0.1-0.1-0.2-0.4-0.4-0.6c-0.1-0.2-0.3-0.4-0.4-0.6
			C270.1,233.6,269.9,233.4,269.7,233.3z"/>
		<path class="st1" d="M277.2,231.8c0.6,0.2,1.1,0.5,1.6,0.9c0.2,0.2,0.6,0.4,0.6,0.8c0,0.1,0.1,0.2,0.1,0.3c0,0.1,0,0.2-0.1,0.3
			c-0.1,0.1-0.1,0.2-0.1,0.3c-0.1,0.1-0.1,0.1-0.3,0.1l-0.1-0.1c0.1-0.4-0.1-0.4-0.2-0.6c-0.1-0.1-0.2-0.4-0.4-0.6
			c-0.1-0.2-0.4-0.4-0.6-0.6C277.6,232.3,277.4,232,277.2,231.8z"/>
		<path class="st4" d="M143,212c5.5,0,9.9-6.6,9.9-14.6s-4.4-14.6-9.9-14.6c-5.5,0-9.9,6.6-9.9,14.6S137.6,212,143,212z"/>
		<path class="st4" d="M247.3,233.1c5.5,0,9.9-6.6,9.9-14.6s-4.4-14.6-9.9-14.6s-9.9,6.6-9.9,14.6S241.8,233.1,247.3,233.1z"/>
	</g>
	<g id="closeEye" class="st5">
		<g class="st6">
			<path class="st1" d="M123.9,188c3.4,4.6,6.4,8,9.9,10.7c1.7,1.4,3.6,2.6,5.6,3.6c2.1,1,4.3,1.6,6.6,2.2c2.3,0.5,4.8,0.8,7.3,0.9
				c1.3,0,2.5,0.1,3.8,0.1l1.9,0c0.6,0,1.3,0,1.9-0.1c5.2-0.2,10.4-0.8,15.9-1.3l0.3,1c-4.8,2.7-9.9,4.8-15.3,6.1
				c-2.7,0.7-5.5,1.1-8.4,1.4c-1.4,0.1-2.9,0.2-4.3,0.1c-0.7,0-1.5,0-2.2-0.1l-2.2-0.2c-2.9-0.4-5.9-1.1-8.7-2.3
				c-2.8-1.2-5.6-2.9-7.8-5.1c-2.2-2.2-3.9-4.9-4.9-7.8c-0.5-1.5-0.8-2.9-0.9-4.5c-0.1-1.5,0-3,0.5-4.5L123.9,188z"/>
		</g>
		<g class="st6">
			<path class="st1" d="M122.1,204.3c0.8-0.1,1.5-0.3,2.2-0.6c0.7-0.3,1.3-0.6,2-1c0.3-0.2,0.6-0.4,0.8-0.7c0.3-0.2,0.5-0.4,0.9-0.6
				c0.3-0.1,0.7-0.2,1.1-0.3c0.4-0.1,0.9-0.1,1.5-0.1l0.2,0.2c0,1.1-0.5,2-1.1,2.7c-0.6,0.7-1.6,0.8-2.5,1c-0.9,0.2-1.8,0.3-2.6,0.3
				c-0.9-0.1-1.7-0.2-2.5-0.6L122.1,204.3z"/>
		</g>
		<g class="st6">
			<path class="st1" d="M132.3,214.6c0.8-0.3,1.4-0.8,1.9-1.4c0.5-0.6,0.9-1.3,1.2-2c0.3-0.7,0.2-1.6,0.7-2.2c0.2-0.3,0.5-0.7,0.8-1
				c0.3-0.3,0.6-0.7,1.2-1l0.3,0.1c0.6,1,0.7,2,0.6,3c-0.1,0.5-0.3,0.9-0.6,1.3c-0.3,0.4-0.6,0.8-1,1.2c-0.6,0.8-1.4,1.4-2.3,1.9
				c-0.9,0.4-1.9,0.7-2.8,0.5V214.6z"/>
		</g>
		<g class="st6">
			<path class="st1" d="M149.9,216.2c0.6-0.5,1-1.2,1.1-1.8c0.2-0.7,0.2-1.3,0-2c-0.1-0.7-0.6-1.3-0.5-2c0-0.4,0-0.7,0.1-1.2
				c0.1-0.4,0.2-0.9,0.4-1.4l0.3-0.1c1.1,0.4,1.7,1.2,2.1,2c0.2,0.4,0.3,0.9,0.2,1.4c-0.1,0.5-0.1,1-0.2,1.4
				c-0.1,0.9-0.5,1.9-1.1,2.6c-0.6,0.7-1.4,1.3-2.3,1.4L149.9,216.2z"/>
		</g>
		<g class="st6">
			<path class="st1" d="M233.9,215c3.8,4.2,7.2,7.3,11,9.7c1.9,1.2,3.8,2.3,6,3c2.1,0.8,4.4,1.2,6.8,1.5c2.4,0.3,4.8,0.3,7.3,0.2
				c1.2-0.1,2.5-0.2,3.8-0.3l1.9-0.2c0.6-0.1,1.3-0.1,1.9-0.2c5.1-0.7,10.3-1.8,15.6-2.9l0.4,0.9c-4.5,3.2-9.4,5.7-14.6,7.6
				c-2.6,1-5.4,1.7-8.2,2.2c-1.4,0.2-2.8,0.5-4.3,0.6c-0.7,0-1.5,0.1-2.2,0.1l-2.2,0c-3-0.1-6-0.5-8.9-1.4c-2.9-0.9-5.8-2.3-8.3-4.3
				c-2.4-2-4.4-4.5-5.7-7.3c-0.6-1.4-1.1-2.8-1.3-4.3c-0.2-1.5-0.3-3,0-4.5L233.9,215z"/>
		</g>
		<g class="st6">
			<path class="st1" d="M233.8,231.4c0.8-0.2,1.5-0.5,2.2-0.8c0.7-0.4,1.3-0.8,1.8-1.2c0.3-0.2,0.5-0.5,0.7-0.8
				c0.2-0.3,0.5-0.5,0.8-0.6c0.3-0.1,0.7-0.3,1.1-0.4c0.4-0.1,0.8-0.2,1.4-0.3l0.2,0.2c0.1,1.1-0.3,2-0.8,2.8
				c-0.5,0.8-1.5,1-2.4,1.3c-0.8,0.3-1.7,0.5-2.6,0.5c-0.9,0-1.7,0-2.6-0.3L233.8,231.4z"/>
		</g>
		<g class="st6">
			<path class="st1" d="M244.9,240.6c0.7-0.4,1.4-1,1.8-1.6c0.4-0.6,0.7-1.4,1-2.1c0.2-0.7,0.1-1.6,0.5-2.3c0.2-0.4,0.4-0.7,0.7-1.1
				c0.3-0.4,0.6-0.8,1-1.1l0.3,0c0.7,0.9,0.9,1.9,0.9,2.9c0,0.5-0.2,1-0.4,1.4c-0.3,0.4-0.5,0.8-0.8,1.2c-0.5,0.8-1.2,1.6-2.1,2.1
				c-0.9,0.5-1.8,0.9-2.8,0.8L244.9,240.6z"/>
		</g>
		<g class="st6">
			<path class="st1" d="M262.6,240.5c0.5-0.6,0.9-1.3,0.9-2c0.1-0.7,0-1.3-0.2-2c-0.2-0.7-0.7-1.2-0.7-1.9c-0.1-0.4,0-0.7,0-1.2
				c0-0.4,0.1-0.9,0.3-1.4l0.3-0.1c1.1,0.3,1.8,1,2.3,1.8c0.2,0.4,0.4,0.9,0.4,1.3c0,0.5,0,1-0.1,1.4c-0.1,1-0.3,1.9-0.9,2.7
				c-0.6,0.8-1.3,1.4-2.2,1.6L262.6,240.5z"/>
		</g>
	</g>
	<g id="hair">
		<path class="st1" d="M228.9,42c-11.3,7.8-22.3,15.9-33.1,24.3c-10.8,8.4-21.5,17-31.7,26.2c-10.2,9.1-20.1,18.7-29,28.9
			c-4.4,5.2-8.7,10.5-12.2,16.4c-1.8,2.9-3.3,5.9-4.4,9.2c-1.1,3.2-1.8,6.6-1.5,10h-0.1c-0.5-3.4,0-6.9,1.1-10.3
			c1.1-3.3,2.5-6.4,4.2-9.5c3.4-6,7.6-11.5,12-16.8c8.9-10.5,19-19.9,29.4-28.9c10.4-9,21.1-17.5,32-25.8
			C206.4,57.5,217.5,49.5,228.9,42L228.9,42z"/>
		<path class="st1" d="M237.5,46.7c-7.4,9-14.5,18.3-21.3,27.7c-6.8,9.5-13.3,19.1-19.4,29c-6.1,10-11.6,20.2-16.2,30.8
			c-2.3,5.3-4.3,10.8-5.6,16.4c-0.7,2.8-1.1,5.7-1.3,8.6c-0.2,2.9,0,5.8,0.6,8.6l-0.1,0.1c-0.8-2.8-1.1-5.7-1.1-8.7
			c0.1-3,0.4-5.9,1-8.8c1.2-5.7,3.1-11.3,5.3-16.8c4.5-10.8,10.4-21,16.6-30.9c6.2-9.9,12.8-19.5,19.8-28.9
			c7-9.3,14.2-18.5,21.7-27.4L237.5,46.7z"/>
		<path class="st1" d="M247.3,51.9c-3.4,9.7-6.6,19.4-9.7,29.1c-3.1,9.8-6,19.6-8.7,29.4c-2.7,9.9-5,19.9-7.1,29.9
			c-1.1,5-1.8,10-2.4,15.1c-0.3,2.5-0.5,5.1-0.5,7.6c0,2.5,0.1,5.1,0.8,7.6l-0.1,0.1c-0.8-2.5-1.1-5-1.3-7.6
			c-0.1-2.5-0.1-5.2,0.1-7.7c0.4-5.2,1.1-10.3,2-15.3c1.8-10.1,4.5-20,7.3-29.9c2.8-9.8,5.9-19.7,9.1-29.4c3.2-9.7,6.6-19.4,10.2-29
			L247.3,51.9z"/>
		<path class="st1" d="M259.9,51.9c0.1,0.7,0.1,1.3,0.1,2.1V56v4.1v8.1c0,5.4,0,10.9,0,16.3c0.1,10.9,0.2,21.7,0.6,32.6
			c0.4,10.9,1.1,21.7,2.2,32.5c0.5,5.4,1.2,10.8,2.1,16.1c0.5,2.7,1.1,5.3,1.8,7.9c0.7,2.6,1.6,5.2,3,7.5l-0.1,0.1
			c-1.6-2.2-2.6-4.8-3.5-7.4c-0.8-2.6-1.6-5.2-2.1-7.9c-1.2-5.3-1.9-10.8-2.5-16.2c-1.2-10.8-1.6-21.7-1.9-32.6
			c-0.3-10.9-0.4-21.8-0.2-32.7c0.1-5.4,0.1-10.9,0.3-16.3l0.1-8.1l0.1-4.1v-2.1c0-0.7,0-1.3-0.1-2.1H259.9z"/>
		<path class="st1 st2222" d="M80.5,189.7C80.6,189.7,80.6,189.7,80.5,189.7c0.1,0.1,0.1,0.1,0.1,0.1c0,0.1,0,0.1,0,0.1s0,0.1,0,0.1
			c0,0.1-0.1,0.2-0.1,0.3c-0.1,0.1-0.1,0.4-0.2,0.5l-0.4,1l-0.8,1.9l-1.7,3.8c-1.1,2.5-2.2,5-3.2,7.6c-2,5.1-3.8,10.3-5.3,15.6
			c-3,10.5-4.8,21.4-5.1,32.4c-0.1,5.4,0.1,10.9,0.8,16.3c0.7,5.4,1.7,10.8,3,16c0.6,2.6,1.4,5.2,2.2,7.9c0.8,2.6,1.8,5.2,2.8,7.7
			c2,5.1,4.3,10,6.8,15l-0.3,0.2c-6.8-8.8-11.8-19-14.9-29.8c-1.6-5.4-2.5-11-3-16.6c-0.5-5.6-0.5-11.2-0.2-16.8
			c0.6-11.2,2.8-22.2,6.2-32.8c1.7-5.3,3.7-10.5,6-15.6c1.1-2.5,2.3-5,3.5-7.5l1.9-3.7l1-1.8l0.4-0.9c0.1-0.1,0.1-0.3,0.2-0.5
			c0-0.1,0.1-0.1,0.1-0.2v-0.1c0,0-0.1,0,0.1,0.1L80.5,189.7z"/>
	</g>
</g>
</svg>
